<svg preserveAspectRatio="none" overflow="visible" style="display: block;" width="24" height="24" viewBox="0 0 24 24" fill="none" xmlns="http://www.w3.org/2000/svg">
<g id="System icon/fill/other/book/book open">
<path id="Subtract" d="M7.76274 4C8.84149 4 9.87588 4.42868 10.6387 5.19141C10.8319 5.38454 11.0036 5.59505 11.1524 5.81934V20.6104C10.7782 20.6102 10.4749 20.3068 10.4747 19.9326C10.4747 19.4383 10.2782 18.9639 9.92876 18.6143C9.57916 18.2647 9.1048 18.0674 8.6104 18.0674H2.67778C2.30346 18.0673 2.00005 17.764 2.00005 17.3896V4.67773C2.00017 4.30349 2.30353 4.00013 2.67778 4H7.76274ZM21.3223 4C21.6966 4.00013 21.9999 4.30349 22 4.67773V17.3896C22 17.764 21.6966 18.0673 21.3223 18.0674H15.3897C14.8953 18.0674 14.4209 18.2647 14.0713 18.6143C13.7219 18.9639 13.5254 19.4383 13.5254 19.9326C13.5252 20.3068 13.2219 20.6102 12.8477 20.6104C12.7235 20.6104 12.6089 20.5739 12.5088 20.5156V6.44336C12.7103 5.98076 12.9977 5.55511 13.3614 5.19141C14.1242 4.42868 15.1586 4 16.2374 4H21.3223Z" fill="white" fill-opacity="0.6"/>
</g>
</svg>
