<svg preserveAspectRatio="none" overflow="visible" style="display: block;" width="20" height="20" viewBox="0 0 20 20" fill="none" xmlns="http://www.w3.org/2000/svg">
<g id="search">
<path id="Union" fill-rule="evenodd" clip-rule="evenodd" d="M8.71463 1.01567C12.9652 1.01577 16.4108 4.46198 16.4108 8.71261C16.4107 10.6122 15.7203 12.3491 14.5797 13.6915L18.7993 17.9118C19.0434 18.1561 19.0433 18.5521 18.7993 18.7964C18.555 19.0407 18.159 19.0407 17.9147 18.7964L13.6951 14.5769C12.3526 15.7182 10.6149 16.4087 8.71463 16.4087C4.46399 16.4087 1.01779 12.9632 1.01769 8.71261C1.01769 4.46191 4.46393 1.01567 8.71463 1.01567ZM8.71463 2.2673C5.15497 2.2673 2.26931 5.15296 2.26931 8.71261C2.26942 12.2722 5.15504 15.1579 8.71463 15.1579C10.4919 15.1579 12.1002 14.4375 13.2662 13.274C13.2679 13.2723 13.2702 13.2708 13.2719 13.2691C13.2738 13.2672 13.2757 13.2653 13.2776 13.2634C14.4404 12.0975 15.1599 10.4893 15.1599 8.71261C15.1599 5.15302 12.2742 2.2674 8.71463 2.2673Z" fill="white"/>
</g>
</svg>
